<svg width="7" height="15" viewBox="0 0 7 15" fill="none" xmlns="http://www.w3.org/2000/svg">
<path d="M1.16991 9.01088e-05C1.31342 -0.000418187 1.45522 0.0325542 1.58488 0.0965829C1.71454 0.160612 1.82877 0.254071 1.91918 0.370091L6.55888 6.37009C6.70017 6.54902 6.77741 6.77347 6.77741 7.00509C6.77741 7.23672 6.70017 7.46116 6.55888 7.64009L1.75588 13.6401C1.59283 13.8443 1.35853 13.9727 1.10452 13.9971C0.85051 14.0215 0.597602 13.9398 0.401432 13.7701C0.205261 13.6004 0.0818968 13.3564 0.0584775 13.092C0.0350586 12.8276 0.113503 12.5643 0.276553 12.3601L4.57044 7.00009L0.420645 1.64009C0.30318 1.4933 0.228563 1.31456 0.205624 1.12502C0.182686 0.935467 0.212384 0.743042 0.291208 0.570515C0.37003 0.397988 0.494678 0.252576 0.650401 0.151486C0.806124 0.0503954 0.986406 -0.00214151 1.16991 9.01088e-05Z" fill="white"/>
</svg>
