<svg width="27" height="26" viewBox="0 0 27 26" fill="none" xmlns="http://www.w3.org/2000/svg">
<path d="M26.4166 13.6083V22.6499C26.4166 23.3351 26.1445 23.9921 25.66 24.4766C25.1755 24.9611 24.5185 25.2333 23.8333 25.2333H21.25C20.5648 25.2333 19.9078 24.9611 19.4233 24.4766C18.9388 23.9921 18.6666 23.3351 18.6666 22.6499V16.1916C18.6666 15.5064 18.9388 14.8494 19.4233 14.3649C19.9078 13.8804 20.5648 13.6083 21.25 13.6083H23.8333C23.8333 10.8677 22.7446 8.23936 20.8068 6.30148C18.8689 4.36361 16.2406 3.27492 13.5 3.27492C10.7594 3.27492 8.13109 4.36361 6.19321 6.30148C4.25533 8.23936 3.16665 10.8677 3.16665 13.6083H5.74998C6.43512 13.6083 7.0922 13.8804 7.57667 14.3649C8.06114 14.8494 8.33331 15.5064 8.33331 16.1916V22.6499C8.33331 23.3351 8.06114 23.9921 7.57667 24.4766C7.0922 24.9611 6.43512 25.2333 5.74998 25.2333H3.16665C2.4815 25.2333 1.82442 24.9611 1.33995 24.4766C0.855485 23.9921 0.583313 23.3351 0.583313 22.6499V13.6083C0.583313 6.47438 6.36611 0.691589 13.5 0.691589C20.6339 0.691589 26.4166 6.47438 26.4166 13.6083Z" fill="white"/>
</svg>
