<svg width="133" height="35" viewBox="0 0 133 35" fill="none" xmlns="http://www.w3.org/2000/svg">
<path d="M69.4109 13.0989C69.11 13.0338 68.8053 13.0007 68.5 13C65.4612 13 63 16.1325 63 20C63 21.4849 63.3668 22.8569 63.9831 23.9948C64.3612 23.2878 65.2333 22.8 66.2443 22.8C66.9387 22.8 67.5667 23.0332 68.0167 23.4081L69.4109 13.0989ZM72.3335 14.9867C73.2833 17.6598 72.45 19.0878 72.45 19.0878C71.8055 16.6203 69.9389 16.2598 69.9389 16.2598C69.9389 16.2598 68.7111 24.6808 68.7111 24.7867C68.7111 25.6989 67.95 26.4697 66.9167 26.7029C67.4303 26.8996 67.9637 26.9997 68.5 27C71.5388 27 74 23.8675 74 20C74 18.0343 73.361 16.2594 72.3335 14.9867Z" fill="#C9C9C9"/>
<path d="M11.6162 8.67871C10.5713 8.67871 9.62402 8.87891 8.77441 9.2793C7.9248 9.66992 7.19727 10.2363 6.5918 10.9785C5.99609 11.7207 5.53223 12.624 5.2002 13.6885C4.87793 14.7529 4.7168 15.9541 4.7168 17.292C4.7168 18.6689 4.8584 19.8945 5.1416 20.9688C5.43457 22.0332 5.86914 22.9316 6.44531 23.6641C7.02148 24.3965 7.73926 24.9531 8.59863 25.334C9.45801 25.7148 10.4639 25.9053 11.6162 25.9053C12.4854 25.9053 13.3105 25.8223 14.0918 25.6562C14.873 25.4805 15.6445 25.2803 16.4062 25.0557V27.4287C16.0254 27.5752 15.6445 27.707 15.2637 27.8242C14.8828 27.9316 14.4824 28.0195 14.0625 28.0879C13.6523 28.1562 13.208 28.2051 12.7295 28.2344C12.2607 28.2734 11.7383 28.293 11.1621 28.293C9.56055 28.293 8.17383 28.0293 7.00195 27.502C5.83008 26.9746 4.8584 26.2275 4.08691 25.2607C3.3252 24.2939 2.75879 23.1318 2.3877 21.7744C2.0166 20.417 1.83105 18.9131 1.83105 17.2627C1.83105 15.6416 2.04102 14.1572 2.46094 12.8096C2.89062 11.4619 3.51562 10.3047 4.33594 9.33789C5.16602 8.37109 6.19141 7.61914 7.41211 7.08203C8.63281 6.54492 10.0342 6.27637 11.6162 6.27637C12.6709 6.27637 13.6768 6.38379 14.6338 6.59863C15.5908 6.81348 16.4551 7.12598 17.2266 7.53613L16.084 9.82129C15.4688 9.50879 14.7998 9.24023 14.0771 9.01562C13.3545 8.79102 12.5342 8.67871 11.6162 8.67871ZM30.7031 28V17.6436C30.7031 16.374 30.4443 15.4219 29.9268 14.7871C29.4189 14.1523 28.6182 13.835 27.5244 13.835C26.7334 13.835 26.0693 13.9619 25.5322 14.2158C24.9951 14.4697 24.5605 14.8457 24.2285 15.3438C23.9062 15.8418 23.6719 16.4521 23.5254 17.1748C23.3887 17.8975 23.3203 18.7275 23.3203 19.665V28H20.6543V5.20703H23.3203V11.9746L23.2031 14.084H23.3496C23.5938 13.6641 23.8818 13.3027 24.2139 13C24.5557 12.6875 24.9268 12.4287 25.3271 12.2236C25.7275 12.0186 26.1523 11.8672 26.6016 11.7695C27.0508 11.6719 27.5098 11.623 27.9785 11.623C29.7656 11.623 31.1084 12.0918 32.0068 13.0293C32.915 13.957 33.3691 15.4463 33.3691 17.4971V28H30.7031ZM40.9863 28H38.3203V11.916H40.9863V28ZM38.1152 7.56543C38.1152 6.97949 38.2617 6.55469 38.5547 6.29102C38.8574 6.02734 39.2285 5.89551 39.668 5.89551C39.8828 5.89551 40.083 5.92969 40.2686 5.99805C40.4639 6.05664 40.6299 6.1543 40.7666 6.29102C40.9131 6.42773 41.0254 6.60352 41.1035 6.81836C41.1914 7.02344 41.2354 7.27246 41.2354 7.56543C41.2354 8.13184 41.0791 8.55664 40.7666 8.83984C40.4639 9.11328 40.0977 9.25 39.668 9.25C39.2285 9.25 38.8574 9.11328 38.5547 8.83984C38.2617 8.56641 38.1152 8.1416 38.1152 7.56543ZM48.75 28H46.084V5.20703H48.75V28ZM56.5137 28H53.8477V5.20703H56.5137V28ZM68.877 11.623C69.7949 11.623 70.6299 11.7988 71.3818 12.1504C72.1338 12.502 72.7734 13.0293 73.3008 13.7324C73.8379 14.4258 74.2529 15.29 74.5459 16.3252C74.8389 17.3604 74.9854 18.5615 74.9854 19.9287C74.9854 21.3057 74.8389 22.5166 74.5459 23.5615C74.2529 24.5967 73.8379 25.4658 73.3008 26.1689C72.7734 26.8721 72.1338 27.4043 71.3818 27.7656C70.6299 28.1172 69.7949 28.293 68.877 28.293C68.3008 28.293 67.7783 28.2295 67.3096 28.1025C66.8408 27.9756 66.416 27.8096 66.0352 27.6045C65.6641 27.3896 65.332 27.1406 65.0391 26.8574C64.7559 26.5742 64.502 26.2764 64.2773 25.9639H64.1016L63.5596 28H61.6113V5.20703H64.2773V10.7148C64.2773 11.0566 64.2725 11.4229 64.2627 11.8135C64.2529 12.1943 64.2383 12.5508 64.2188 12.8828C64.1992 13.2734 64.1797 13.6543 64.1602 14.0254H64.2773C64.502 13.6836 64.7559 13.3662 65.0391 13.0732C65.3223 12.7803 65.6494 12.5264 66.0205 12.3115C66.4014 12.0967 66.8262 11.9307 67.2949 11.8135C67.7637 11.6865 68.291 11.623 68.877 11.623ZM68.3643 13.835C67.583 13.835 66.9287 13.9619 66.4014 14.2158C65.8838 14.46 65.4639 14.8359 65.1416 15.3438C64.8291 15.8516 64.6045 16.4863 64.4678 17.248C64.3408 18.0098 64.2773 18.9033 64.2773 19.9287C64.2773 20.915 64.3408 21.7939 64.4678 22.5654C64.6045 23.3271 64.8291 23.9717 65.1416 24.499C65.4639 25.0166 65.8887 25.4121 66.416 25.6855C66.9434 25.9492 67.6025 26.0811 68.3936 26.0811C69.7119 26.0811 70.6787 25.5488 71.2939 24.4844C71.9189 23.4199 72.2314 21.8916 72.2314 19.8994C72.2314 17.8682 71.9189 16.3496 71.2939 15.3438C70.6787 14.3379 69.7021 13.835 68.3643 13.835ZM85.5469 28.293C84.4727 28.293 83.4912 28.1123 82.6025 27.751C81.7139 27.3896 80.9473 26.8623 80.3027 26.1689C79.668 25.4756 79.1748 24.6162 78.8232 23.5908C78.4717 22.5654 78.2959 21.3936 78.2959 20.0752C78.2959 18.7471 78.457 17.5605 78.7793 16.5156C79.1016 15.4707 79.5557 14.5869 80.1416 13.8643C80.7275 13.1318 81.4258 12.5752 82.2363 12.1943C83.0566 11.8135 83.96 11.623 84.9463 11.623C85.9131 11.623 86.7822 11.7988 87.5537 12.1504C88.3252 12.4922 88.9795 12.9805 89.5166 13.6152C90.0537 14.2402 90.4639 14.9971 90.7471 15.8857C91.04 16.7646 91.1865 17.7412 91.1865 18.8154V20.4707H81.0498C81.0986 22.3555 81.4941 23.7422 82.2363 24.6309C82.9883 25.5195 84.1016 25.9639 85.5762 25.9639C86.0742 25.9639 86.5332 25.9395 86.9531 25.8906C87.3828 25.8418 87.793 25.7734 88.1836 25.6855C88.584 25.5879 88.9697 25.4707 89.3408 25.334C89.7119 25.1875 90.0879 25.0264 90.4688 24.8506V27.2236C90.0781 27.4092 89.6924 27.5703 89.3115 27.707C88.9404 27.8438 88.5547 27.9561 88.1543 28.0439C87.7637 28.1318 87.3535 28.1953 86.9238 28.2344C86.5039 28.2734 86.0449 28.293 85.5469 28.293ZM84.8877 13.835C83.7744 13.835 82.8906 14.2158 82.2363 14.9775C81.5918 15.7393 81.2158 16.8477 81.1084 18.3027H88.3154C88.3154 17.6387 88.2471 17.0332 88.1104 16.4863C87.9834 15.9297 87.7783 15.4561 87.4951 15.0654C87.2217 14.6748 86.8701 14.3721 86.4404 14.1572C86.0107 13.9424 85.4932 13.835 84.8877 13.835ZM104.312 28L103.77 25.7734H103.652C103.33 26.2129 103.008 26.5938 102.686 26.916C102.363 27.2285 102.012 27.4873 101.631 27.6924C101.25 27.8975 100.825 28.0488 100.356 28.1465C99.8877 28.2441 99.3457 28.293 98.7305 28.293C98.0566 28.293 97.4365 28.1953 96.8701 28C96.3037 27.8145 95.8105 27.5264 95.3906 27.1357C94.9805 26.7354 94.6582 26.2373 94.4238 25.6416C94.1895 25.0361 94.0723 24.3232 94.0723 23.5029C94.0723 21.9014 94.6338 20.6709 95.7568 19.8115C96.8896 18.9521 98.6084 18.4834 100.913 18.4053L103.608 18.3027V17.292C103.608 16.6377 103.535 16.0908 103.389 15.6514C103.252 15.2119 103.047 14.8604 102.773 14.5967C102.51 14.3232 102.178 14.1279 101.777 14.0107C101.387 13.8936 100.938 13.835 100.43 13.835C99.6191 13.835 98.8623 13.9521 98.1592 14.1865C97.4658 14.4209 96.7969 14.7041 96.1523 15.0361L95.2148 13.0293C95.9375 12.6387 96.7432 12.3066 97.6318 12.0332C98.5205 11.7598 99.4531 11.623 100.43 11.623C101.426 11.623 102.285 11.7256 103.008 11.9307C103.74 12.126 104.341 12.4434 104.81 12.8828C105.288 13.3125 105.645 13.8643 105.879 14.5381C106.113 15.2119 106.23 16.0273 106.23 16.9844V28H104.312ZM99.4189 26.1396C100.015 26.1396 100.566 26.0469 101.074 25.8613C101.582 25.6758 102.021 25.3975 102.393 25.0264C102.764 24.6455 103.052 24.1719 103.257 23.6055C103.472 23.0293 103.579 22.3555 103.579 21.584V20.1338L101.484 20.2363C100.605 20.2754 99.8682 20.373 99.2725 20.5293C98.6768 20.6855 98.1982 20.9053 97.8369 21.1885C97.4854 21.4619 97.2314 21.7988 97.0752 22.1992C96.9189 22.5898 96.8408 23.0342 96.8408 23.5322C96.8408 24.4307 97.0752 25.0898 97.5439 25.5098C98.0225 25.9297 98.6475 26.1396 99.4189 26.1396ZM116.045 26.1104C116.221 26.1104 116.416 26.1006 116.631 26.0811C116.855 26.0615 117.07 26.0371 117.275 26.0078C117.48 25.9785 117.666 25.9443 117.832 25.9053C118.008 25.8662 118.14 25.832 118.228 25.8027V27.8242C118.101 27.8828 117.939 27.9414 117.744 28C117.549 28.0586 117.334 28.1074 117.1 28.1465C116.865 28.1953 116.621 28.2295 116.367 28.249C116.113 28.2783 115.864 28.293 115.62 28.293C115.015 28.293 114.453 28.2148 113.936 28.0586C113.418 27.9023 112.969 27.6338 112.588 27.2529C112.217 26.8721 111.924 26.3594 111.709 25.7148C111.494 25.0605 111.387 24.2402 111.387 23.2539V13.9229H109.116V12.7363L111.387 11.5938L112.529 8.22461H114.067V11.916H118.11V13.9229H114.067V23.2539C114.067 24.2012 114.219 24.9141 114.521 25.3926C114.834 25.8711 115.342 26.1104 116.045 26.1104ZM130.972 23.5908C130.972 24.3721 130.83 25.0557 130.547 25.6416C130.264 26.2275 129.854 26.7207 129.316 27.1211C128.789 27.5117 128.149 27.8047 127.397 28C126.646 28.1953 125.801 28.293 124.863 28.293C123.799 28.293 122.886 28.2051 122.124 28.0293C121.362 27.8633 120.693 27.6143 120.117 27.2822V24.8506C120.42 25.0068 120.757 25.1631 121.128 25.3193C121.499 25.4658 121.89 25.5977 122.3 25.7148C122.71 25.832 123.13 25.9297 123.56 26.0078C123.999 26.0762 124.434 26.1104 124.863 26.1104C125.498 26.1104 126.035 26.0566 126.475 25.9492C126.924 25.8418 127.285 25.6904 127.559 25.4951C127.842 25.29 128.047 25.0459 128.174 24.7627C128.301 24.4697 128.364 24.1475 128.364 23.7959C128.364 23.4932 128.315 23.2197 128.218 22.9756C128.12 22.7314 127.939 22.4922 127.676 22.2578C127.422 22.0137 127.07 21.7695 126.621 21.5254C126.172 21.2812 125.596 21.0078 124.893 20.7051C124.189 20.4023 123.555 20.1045 122.988 19.8115C122.432 19.5186 121.958 19.1914 121.567 18.8301C121.177 18.4688 120.874 18.0537 120.659 17.585C120.454 17.1064 120.352 16.54 120.352 15.8857C120.352 15.2021 120.483 14.5967 120.747 14.0693C121.021 13.5322 121.401 13.083 121.89 12.7217C122.378 12.3604 122.964 12.0869 123.647 11.9014C124.331 11.7158 125.093 11.623 125.933 11.623C126.88 11.623 127.744 11.7256 128.525 11.9307C129.316 12.1357 130.063 12.4043 130.767 12.7363L129.844 14.8896C129.209 14.6064 128.555 14.3623 127.881 14.1572C127.217 13.9424 126.538 13.835 125.845 13.835C124.849 13.835 124.111 14.001 123.633 14.333C123.154 14.6553 122.915 15.1191 122.915 15.7246C122.915 16.0664 122.969 16.3643 123.076 16.6182C123.193 16.8721 123.389 17.1113 123.662 17.3359C123.936 17.5605 124.302 17.79 124.761 18.0244C125.22 18.249 125.791 18.5029 126.475 18.7861C127.178 19.0791 127.803 19.3721 128.35 19.665C128.906 19.958 129.38 20.29 129.771 20.6611C130.161 21.0225 130.459 21.4375 130.664 21.9062C130.869 22.375 130.972 22.9365 130.972 23.5908Z" fill="white"/>
</svg>
