<svg width="19" height="18" viewBox="0 0 19 18" fill="none" xmlns="http://www.w3.org/2000/svg">
<path d="M18.8568 1C18.8568 0.734784 18.7515 0.48043 18.5639 0.292893C18.3764 0.105357 18.122 0 17.8568 0C17.5916 0 17.3372 0.105357 17.1497 0.292893C16.9622 0.48043 16.8568 0.734784 16.8568 1V17C16.8568 17.2652 16.9622 17.5196 17.1497 17.7071C17.3372 17.8946 17.5916 18 17.8568 18C18.122 18 18.3764 17.8946 18.5639 17.7071C18.7515 17.5196 18.8568 17.2652 18.8568 17V1Z" fill="white"/>
<path d="M0.856812 1.947C0.856812 0.523 2.46881 -0.305 3.62681 0.525L14.0968 8.032C14.3289 8.19848 14.5168 8.41924 14.6439 8.67502C14.7711 8.9308 14.8337 9.21382 14.8263 9.49937C14.8189 9.78492 14.7417 10.0643 14.6015 10.3132C14.4612 10.562 14.2622 10.7728 14.0218 10.927L3.55181 17.643C2.38681 18.39 0.856812 17.554 0.856812 16.17V1.947Z" fill="white"/>
</svg>
