<svg width="18" height="18" viewBox="0 0 18 18" fill="none" xmlns="http://www.w3.org/2000/svg">
<path d="M0 1C0 0.734784 0.105356 0.48043 0.292892 0.292893C0.480429 0.105357 0.734784 0 1 0C1.26522 0 1.51957 0.105357 1.70711 0.292893C1.89464 0.48043 2 0.734784 2 1V17C2 17.2652 1.89464 17.5196 1.70711 17.7071C1.51957 17.8946 1.26522 18 1 18C0.734784 18 0.480429 17.8946 0.292892 17.7071C0.105356 17.5196 0 17.2652 0 17V1Z" fill="white"/>
<path d="M18 1.947C18 0.523 16.388 -0.305 15.23 0.525L4.76 8.032C4.52789 8.19848 4.34005 8.41924 4.2129 8.67502C4.08574 8.9308 4.02313 9.21382 4.03053 9.49937C4.03792 9.78492 4.11511 10.0643 4.25534 10.3132C4.39557 10.562 4.59458 10.7728 4.835 10.927L15.305 17.643C16.47 18.39 18 17.554 18 16.17V1.947Z" fill="white"/>
</svg>
