<svg width="22" height="22" viewBox="0 0 22 22" fill="none" xmlns="http://www.w3.org/2000/svg">
<path d="M1 1C17 17 21 21 21 21L1 1Z" stroke="white" stroke-width="2"/>
<g clip-path="url(#clip0)">
<path d="M16.9498 7.694H17.8698V10.556L21.8568 6.532L17.8688 2.507V4.894H16.9488C13.2548 4.894 11.1728 7.632 9.33481 10.046C7.68281 12.218 6.25481 14.095 3.94881 14.095H1.85681V16.894H3.94981C7.64381 16.894 9.72581 14.158 11.5638 11.742C13.2158 9.569 14.6438 7.694 16.9498 7.694ZM7.26681 9.458C7.42481 9.255 7.58281 9.046 7.74381 8.835C8.1497 8.29412 8.56712 7.762 8.99581 7.239C7.67381 6.005 6.08081 5.095 3.94981 5.095H1.85681V7.894H3.94981C5.27681 7.894 6.31181 8.517 7.26681 9.458ZM17.8688 14.294H16.9488C15.5418 14.294 14.4618 13.593 13.4578 12.556L13.1548 12.953C12.7138 13.533 12.2398 14.154 11.7158 14.771C13.0718 16.095 14.7158 17.095 16.9478 17.095H17.8678V19.493L21.8568 15.468L17.8688 11.443V14.294Z" fill="white"/>
</g>
<defs>
<clipPath id="clip0">
<rect width="20.0753" height="20" fill="white" transform="translate(1.4425 1)"/>
</clipPath>
</defs>
</svg>
