<svg width="27" height="33" viewBox="0 0 27 33" fill="none" xmlns="http://www.w3.org/2000/svg">
<path d="M7.125 0.5625H3.9375C3.09212 0.5625 2.28137 0.898325 1.6836 1.4961C1.08583 2.09387 0.75 2.90462 0.75 3.75V29.25C0.75 30.0954 1.08583 30.9061 1.6836 31.5039C2.28137 32.1017 3.09212 32.4375 3.9375 32.4375H7.125C7.97038 32.4375 8.78113 32.1017 9.3789 31.5039C9.97667 30.9061 10.3125 30.0954 10.3125 29.25V3.75C10.3125 2.90462 9.97667 2.09387 9.3789 1.4961C8.78113 0.898325 7.97038 0.5625 7.125 0.5625V0.5625Z" fill="white"/>
<path d="M23.0625 0.5625H19.875C19.0296 0.5625 18.2189 0.898325 17.6211 1.4961C17.0233 2.09387 16.6875 2.90462 16.6875 3.75V29.25C16.6875 30.0954 17.0233 30.9061 17.6211 31.5039C18.2189 32.1017 19.0296 32.4375 19.875 32.4375H23.0625C23.9079 32.4375 24.7186 32.1017 25.3164 31.5039C25.9142 30.9061 26.25 30.0954 26.25 29.25V3.75C26.25 2.90462 25.9142 2.09387 25.3164 1.4961C24.7186 0.898325 23.9079 0.5625 23.0625 0.5625V0.5625Z" fill="white"/>
</svg>
