<svg width="38" height="38" viewBox="0 0 38 38" fill="none" xmlns="http://www.w3.org/2000/svg">
<path d="M28.5 30.875C28.5 33.4994 25.84 35.625 22.5625 35.625C19.285 35.625 16.625 33.4994 16.625 30.875C16.625 28.2506 19.285 26.125 22.5625 26.125C25.84 26.125 28.5 28.2506 28.5 30.875Z" fill="white"/>
<path fill-rule="evenodd" clip-rule="evenodd" d="M28.5 7.125V30.875H26.125V7.125H28.5Z" fill="white"/>
<path d="M26.125 6.69749C26.1253 6.14865 26.3157 5.61686 26.6639 5.19254C27.012 4.76822 27.4963 4.47757 28.0345 4.36999L35.1595 2.94499C35.5039 2.87615 35.8593 2.88456 36.2001 2.96961C36.5409 3.05467 36.8586 3.21426 37.1303 3.43687C37.402 3.65949 37.6209 3.9396 37.7713 4.25701C37.9217 4.57443 37.9998 4.92125 38 5.27249V9.49999L26.125 11.875V6.69749Z" fill="white"/>
<path fill-rule="evenodd" clip-rule="evenodd" d="M0 27.3125C0 26.9976 0.125111 26.6955 0.347811 26.4728C0.57051 26.2501 0.872555 26.125 1.1875 26.125H9.5C9.81494 26.125 10.117 26.2501 10.3397 26.4728C10.5624 26.6955 10.6875 26.9976 10.6875 27.3125C10.6875 27.6274 10.5624 27.9295 10.3397 28.1522C10.117 28.3749 9.81494 28.5 9.5 28.5H1.1875C0.872555 28.5 0.57051 28.3749 0.347811 28.1522C0.125111 27.9295 0 27.6274 0 27.3125ZM0 17.8125C0 17.4976 0.125111 17.1955 0.347811 16.9728C0.57051 16.7501 0.872555 16.625 1.1875 16.625H19C19.3149 16.625 19.617 16.7501 19.8397 16.9728C20.0624 17.1955 20.1875 17.4976 20.1875 17.8125C20.1875 18.1274 20.0624 18.4295 19.8397 18.6522C19.617 18.8749 19.3149 19 19 19H1.1875C0.872555 19 0.57051 18.8749 0.347811 18.6522C0.125111 18.4295 0 18.1274 0 17.8125ZM0 8.3125C0 7.99756 0.125111 7.69551 0.347811 7.47281C0.57051 7.25011 0.872555 7.125 1.1875 7.125H19C19.3149 7.125 19.617 7.25011 19.8397 7.47281C20.0624 7.69551 20.1875 7.99756 20.1875 8.3125C20.1875 8.62744 20.0624 8.92949 19.8397 9.15219C19.617 9.37489 19.3149 9.5 19 9.5H1.1875C0.872555 9.5 0.57051 9.37489 0.347811 9.15219C0.125111 8.92949 0 8.62744 0 8.3125Z" fill="white"/>
</svg>
