<svg width="17" height="15" viewBox="0 0 17 15" fill="none" xmlns="http://www.w3.org/2000/svg">
<path d="M12.75 12.5155C12.75 13.6896 11.56 14.6405 10.0937 14.6405C8.6275 14.6405 7.4375 13.6896 7.4375 12.5155C7.4375 11.3414 8.6275 10.3905 10.0937 10.3905C11.56 10.3905 12.75 11.3414 12.75 12.5155Z" fill="white"/>
<path fill-rule="evenodd" clip-rule="evenodd" d="M12.75 1.89075V12.5157H11.6875V1.89075H12.75Z" fill="white"/>
<path d="M11.6875 1.69936C11.6876 1.45382 11.7728 1.21592 11.9286 1.02609C12.0843 0.836262 12.301 0.706233 12.5417 0.658108L15.7292 0.0206084C15.8833 -0.0101899 16.0423 -0.00642792 16.1948 0.0316235C16.3472 0.0696749 16.4894 0.141068 16.6109 0.24066C16.7325 0.340252 16.8304 0.465563 16.8977 0.607565C16.965 0.749566 16.9999 0.904723 17 1.06186V2.95311L11.6875 4.01561V1.69936Z" fill="white"/>
<path fill-rule="evenodd" clip-rule="evenodd" d="M0 10.922C0 10.7811 0.0559708 10.646 0.155599 10.5463C0.255228 10.4467 0.390353 10.3907 0.53125 10.3907H4.25C4.39089 10.3907 4.52602 10.4467 4.62565 10.5463C4.72527 10.646 4.78125 10.7811 4.78125 10.922C4.78125 11.0629 4.72527 11.198 4.62565 11.2976C4.52602 11.3973 4.39089 11.4532 4.25 11.4532H0.53125C0.390353 11.4532 0.255228 11.3973 0.155599 11.2976C0.0559708 11.198 0 11.0629 0 10.922ZM0 6.67199C0 6.5311 0.0559708 6.39597 0.155599 6.29634C0.255228 6.19672 0.390353 6.14074 0.53125 6.14074H8.49999C8.64089 6.14074 8.77601 6.19672 8.87564 6.29634C8.97527 6.39597 9.03124 6.5311 9.03124 6.67199C9.03124 6.81289 8.97527 6.94802 8.87564 7.04764C8.77601 7.14727 8.64089 7.20324 8.49999 7.20324H0.53125C0.390353 7.20324 0.255228 7.14727 0.155599 7.04764C0.0559708 6.94802 0 6.81289 0 6.67199ZM0 2.422C0 2.2811 0.0559708 2.14598 0.155599 2.04635C0.255228 1.94672 0.390353 1.89075 0.53125 1.89075H8.49999C8.64089 1.89075 8.77601 1.94672 8.87564 2.04635C8.97527 2.14598 9.03124 2.2811 9.03124 2.422C9.03124 2.56289 8.97527 2.69802 8.87564 2.79765C8.77601 2.89728 8.64089 2.95325 8.49999 2.95325H0.53125C0.390353 2.95325 0.255228 2.89728 0.155599 2.79765C0.0559708 2.69802 0 2.56289 0 2.422Z" fill="white"/>
</svg>
