<svg width="21" height="20" viewBox="0 0 21 20" fill="none" xmlns="http://www.w3.org/2000/svg">
<g clip-path="url(#clip0)">
<path d="M15.9499 6.694H16.8699V9.556L20.8569 5.532L16.8689 1.507V3.894H15.9489C12.2549 3.894 10.1729 6.632 8.33487 9.046C6.68287 11.218 5.25487 13.095 2.94887 13.095H0.856873V15.894H2.94987C6.64387 15.894 8.72587 13.158 10.5639 10.742C12.2159 8.569 13.6439 6.694 15.9499 6.694ZM6.26687 8.458C6.42487 8.255 6.58287 8.046 6.74387 7.835C7.14976 7.29412 7.56719 6.762 7.99587 6.239C6.67387 5.005 5.08087 4.095 2.94987 4.095H0.856873V6.894H2.94987C4.27687 6.894 5.31187 7.517 6.26687 8.458ZM16.8689 13.294H15.9489C14.5419 13.294 13.4619 12.593 12.4579 11.556L12.1549 11.953C11.7139 12.533 11.2399 13.154 10.7159 13.771C12.0719 15.095 13.7159 16.095 15.9479 16.095H16.8679V18.493L20.8569 14.468L16.8689 10.443V13.294Z" fill="white"/>
</g>
<defs>
<clipPath id="clip0">
<rect width="20.0753" height="20" fill="white" transform="translate(0.442566)"/>
</clipPath>
</defs>
</svg>
